<svg width="1299" height="2988" viewBox="0 0 1299 2988" fill="none" xmlns="http://www.w3.org/2000/svg">
<path d="M-344.998 324.655C20.48 -513.711 4.9903 524.197 109.234 628.443C227.533 746.743 365.593 697.468 446.855 939.734C486.296 1057.32 435.181 1284.21 497.106 1377.1C562.199 1474.74 680.848 1434.55 758.229 1496.45C829.49 1553.46 840.311 1857.05 883.11 1967.57C967.599 2185.74 1105.69 2157.78 1192.53 2418.31C1212.11 2477.05 1317.86 3149.06 1296.05 3206.3C1243.36 3344.58 781.029 3199.33 700.279 3199.33C425.277 3199.33 -400.932 3206.39 -403.268 3199.33C-418.801 3152.35 -395.247 605.914 -344.998 324.655Z" fill="#FFEECE"/>
</svg>
