<svg width="422" height="126" viewBox="0 0 422 126" fill="none" xmlns="http://www.w3.org/2000/svg">
<path d="M388.314 65.4263C384.946 53.5307 381.577 44.609 381.577 20.8179H368.103C368.103 44.609 364.735 53.5307 361.366 65.4263C357.998 77.3218 351.26 89.2174 351.26 89.2174H364.735C364.735 89.2174 371.472 71.374 371.472 62.4524H378.209C378.209 71.374 384.946 89.2174 384.946 89.2174H398.42C398.42 89.2174 391.683 77.3218 388.314 65.4263ZM401.789 92.1913H347.892L327.681 124.904H344.523C354.629 107.061 359.958 101.113 374.84 101.113C389.723 101.113 395.052 107.061 405.157 124.904H422L401.789 92.1913Z" fill="#181E4B"/>
<path d="M371.472 62.4524L374.84 20.8179L378.209 62.4524H371.472ZM401.789 92.1913H347.892L342.378 101.113H407.303L401.789 92.1913Z" fill="#181E4B"/>
<path d="M381.577 20.8172C381.577 21.2077 381.49 21.5944 381.321 21.9552C381.152 22.3161 380.904 22.6439 380.591 22.92C380.278 23.1962 379.907 23.4152 379.498 23.5647C379.089 23.7142 378.651 23.7911 378.209 23.7911H371.472C371.029 23.7911 370.591 23.7142 370.183 23.5647C369.774 23.4152 369.403 23.1962 369.09 22.92C368.777 22.6439 368.529 22.3161 368.36 21.9552C368.19 21.5944 368.103 21.2077 368.103 20.8172V14.8694C368.103 14.4789 368.19 14.0921 368.36 13.7313C368.529 13.3705 368.777 13.0427 369.09 12.7665C369.403 12.4904 369.774 12.2713 370.183 12.1219C370.591 11.9724 371.029 11.8955 371.472 11.8955H378.209C378.651 11.8955 379.089 11.9724 379.498 12.1219C379.907 12.2713 380.278 12.4904 380.591 12.7665C380.904 13.0427 381.152 13.3705 381.321 13.7313C381.49 14.0921 381.577 14.4789 381.577 14.8694V20.8172Z" fill="#181E4B"/>
<path d="M385.081 23.7911C385.081 24.1817 384.994 24.5684 384.824 24.9292C384.655 25.29 384.407 25.6178 384.094 25.894C383.781 26.1701 383.41 26.3892 383.001 26.5386C382.593 26.6881 382.155 26.765 381.712 26.765H368.238C367.345 26.765 366.488 26.4517 365.856 25.894C365.224 25.3363 364.869 24.5799 364.869 23.7911V20.8172C364.869 20.0285 365.224 19.2721 365.856 18.7144C366.488 18.1567 367.345 17.8433 368.238 17.8433H381.712C382.155 17.8433 382.593 17.9203 383.001 18.0697C383.41 18.2192 383.781 18.4382 384.094 18.7144C384.407 18.9905 384.655 19.3184 384.824 19.6792C384.994 20.04 385.081 20.4267 385.081 20.8172V23.7911ZM391.818 62.4517C391.818 62.8423 391.731 63.229 391.561 63.5898C391.392 63.9506 391.144 64.2784 390.831 64.5546C390.518 64.8307 390.147 65.0498 389.738 65.1992C389.33 65.3487 388.892 65.4256 388.449 65.4256H361.501C360.608 65.4256 359.751 65.1123 359.119 64.5546C358.487 63.9969 358.132 63.2404 358.132 62.4517C358.132 61.663 358.487 60.9066 359.119 60.3489C359.751 59.7912 360.608 59.4778 361.501 59.4778H388.449C388.892 59.4778 389.33 59.5548 389.738 59.7042C390.147 59.8537 390.518 60.0727 390.831 60.3489C391.144 60.625 391.392 60.9529 391.561 61.3137C391.731 61.6745 391.818 62.0612 391.818 62.4517ZM405.292 89.2167C405.292 90.0055 404.937 90.7619 404.305 91.3196C403.674 91.8773 402.817 92.1906 401.923 92.1906H348.027C347.133 92.1906 346.277 91.8773 345.645 91.3196C345.013 90.7619 344.658 90.0055 344.658 89.2167C344.658 88.428 345.013 87.6716 345.645 87.1139C346.277 86.5562 347.133 86.2429 348.027 86.2429H401.923C402.817 86.2429 403.674 86.5562 404.305 87.1139C404.937 87.6716 405.292 88.428 405.292 89.2167ZM374.975 0L371.607 11.8956H378.344L374.975 0Z" fill="#181E4B"/>
<path d="M273.049 124.88H285.586C285.874 124.88 286.018 124.693 286.018 124.32L286.126 65.8227L297.636 83.288L309.254 65.8227L309.362 124.32C309.362 124.693 309.506 124.88 309.794 124.88H322.331C322.619 124.88 322.763 124.693 322.763 124.32L322.547 45.5584C322.547 45.2599 322.385 45.1106 322.061 45.1106H308.498C308.173 45.1106 307.903 45.2599 307.687 45.5584L297.636 60.6726L287.531 45.5584C287.315 45.2599 287.063 45.1106 286.775 45.1106H273.265C272.977 45.1106 272.833 45.2599 272.833 45.5584L272.617 124.32C272.617 124.693 272.761 124.88 273.049 124.88Z" fill="#181E4B"/>
<path d="M232.359 122.865C235.674 124.955 239.294 126 243.221 126C247.22 126 250.858 124.992 254.136 122.977C257.415 120.962 260.044 118.219 262.026 114.748C263.971 111.277 264.944 107.359 264.944 102.992C264.944 98.4768 263.863 94.6703 261.702 91.5728C259.576 88.4753 256.676 85.863 253.002 83.7358C252.785 83.6239 252.155 83.288 251.11 82.7282C250.066 82.1311 248.895 81.478 247.598 80.769C246.337 80.0226 245.184 79.3508 244.139 78.7537C243.095 78.1566 242.428 77.7834 242.14 77.6342C239.402 76.1041 237.511 74.4994 236.466 72.82C235.458 71.1406 234.953 69.0508 234.953 66.5504C234.953 64.0873 235.764 61.9602 237.385 60.1688C239.006 58.3775 240.951 57.4819 243.221 57.4819C245.454 57.4819 247.382 58.3215 249.003 60.0009C250.624 61.6803 251.434 63.8634 251.434 66.5504L251.543 75.9548C251.543 76.2533 251.687 76.4026 251.975 76.4026H264.403C264.692 76.4026 264.836 76.2533 264.836 75.9548V66.5504C264.836 62.3333 263.845 58.5268 261.864 55.1308C259.918 51.7347 257.307 49.0104 254.028 46.9579C250.75 44.9427 247.148 43.9351 243.221 43.9351C239.402 43.9351 235.854 44.9427 232.576 46.9579C229.333 48.9358 226.704 51.6228 224.686 55.0188C222.669 58.4522 221.66 62.296 221.66 66.5504C221.66 71.178 222.633 75.3577 224.578 79.0896C226.559 82.7842 229.567 85.863 233.602 88.3261C234.719 88.9605 235.872 89.6322 237.061 90.3413C238.249 91.013 239.474 91.7034 240.735 92.4125C241.996 93.1216 243.077 93.756 243.977 94.3158C244.914 94.8382 245.671 95.2861 246.247 95.6592C249.777 97.7491 251.543 100.194 251.543 102.992C251.543 105.418 250.732 107.564 249.111 109.43C247.49 111.259 245.526 112.173 243.221 112.173C240.951 112.173 239.006 111.277 237.385 109.486C235.764 107.657 234.953 105.493 234.953 102.992V97.7305C234.953 97.3199 234.809 97.1147 234.521 97.1147H222.092C221.732 97.1147 221.552 97.3199 221.552 97.7305V102.992C221.552 107.172 222.525 111.016 224.47 114.524C226.451 117.995 229.081 120.775 232.359 122.865Z" fill="#181E4B"/>
<path d="M201.72 124.88H214.257C214.545 124.88 214.689 124.693 214.689 124.32L214.581 45.5584C214.581 45.2599 214.437 45.1106 214.149 45.1106H201.72C201.432 45.1106 201.288 45.2599 201.288 45.5584L201.18 124.32C201.18 124.693 201.36 124.88 201.72 124.88Z" fill="#181E4B"/>
<path fill-rule="evenodd" clip-rule="evenodd" d="M148.224 124.88H160.76C161.048 124.88 161.192 124.693 161.192 124.32L161.301 90.6212H168.596C171.333 90.6212 173.639 91.6288 175.512 93.644C177.386 95.6592 178.322 98.0477 178.322 100.809V124.544C178.322 124.768 178.466 124.88 178.754 124.88H191.291C191.651 124.88 191.831 124.693 191.831 124.32L191.723 100.809C191.723 94.6143 189.724 89.2217 185.725 84.6315C186.626 83.8851 187.617 82.7282 188.697 81.1608C189.814 79.5934 190.787 77.6715 191.615 75.395C192.444 73.1185 192.858 70.5808 192.858 67.7819C192.858 63.4902 191.849 59.6464 189.832 56.2503C187.851 52.8543 185.185 50.1487 181.835 48.1334C178.484 46.1182 174.81 45.1106 170.811 45.1106H148.44C148.152 45.1106 148.007 45.2599 148.007 45.5584L147.791 124.32C147.791 124.693 147.935 124.88 148.224 124.88ZM161.301 58.8253H170.811C173.189 58.8253 175.242 59.721 176.971 61.5123C178.7 63.2663 179.565 65.3562 179.565 67.7819C179.565 70.3196 178.664 72.4655 176.863 74.2194C175.098 75.9734 173.081 76.8504 170.811 76.8504H161.301V58.8253Z" fill="#181E4B"/>
<path d="M117.26 126C113.37 126 109.767 124.955 106.453 122.865C103.139 120.775 100.491 117.976 98.5096 114.468C96.5642 110.923 95.5916 107.06 95.5916 102.88L95.8077 45.5584C95.8077 45.2599 95.9518 45.1106 96.24 45.1106H108.669C108.957 45.1106 109.101 45.2599 109.101 45.5584V102.88C109.101 105.455 109.893 107.657 111.478 109.486C113.064 111.277 114.991 112.173 117.26 112.173C119.638 112.173 121.619 111.277 123.204 109.486C124.79 107.657 125.582 105.455 125.582 102.88V45.5584C125.582 45.2599 125.726 45.1106 126.014 45.1106H138.443C138.731 45.1106 138.875 45.2599 138.875 45.5584L139.091 102.88C139.091 107.098 138.119 110.979 136.173 114.524C134.192 118.032 131.562 120.831 128.284 122.921C125.006 124.973 121.331 126 117.26 126Z" fill="#181E4B"/>
<path d="M66.7899 126C62.8632 126 59.2427 124.955 55.9284 122.865C52.6502 120.776 50.0024 117.995 47.985 114.525C46.0036 111.017 45.0129 107.173 45.0129 102.993L45.121 66.663C45.121 62.4086 46.1117 58.5834 48.0931 55.1874C50.0384 51.754 52.6682 49.0111 55.9825 46.9585C59.2967 44.8687 62.8992 43.8237 66.7899 43.8237C70.8246 43.8237 74.4451 44.85 77.6513 46.9026C80.8936 48.9551 83.4873 51.7167 85.4327 55.1874C87.414 58.6207 88.4047 62.4459 88.4047 66.663L88.5128 102.993C88.5128 107.173 87.5401 110.998 85.5948 114.469C83.6134 117.977 80.9836 120.776 77.7054 122.865C74.4271 124.955 70.7886 126 66.7899 126ZM66.7899 112.174C69.0234 112.174 70.9687 111.241 72.6259 109.375C74.283 107.471 75.1116 105.344 75.1116 102.993L75.0035 66.663C75.0035 64.1253 74.229 61.9794 72.6799 60.2254C71.1309 58.4715 69.1675 57.5945 66.7899 57.5945C64.5203 57.5945 62.575 58.4528 60.9539 60.1695C59.3328 61.8861 58.5222 64.0506 58.5222 66.663V102.993C58.5222 105.493 59.3328 107.658 60.9539 109.487C62.575 111.278 64.5203 112.174 66.7899 112.174Z" fill="#181E4B"/>
<path d="M27.8831 124.88H15.4006C15.0763 124.88 14.9142 124.693 14.9142 124.32V58.9373H0.540371C0.180124 58.9373 0 58.7507 0 58.3775L0.108074 45.5584C0.108074 45.2599 0.252173 45.1106 0.540371 45.1106H42.5812C42.9775 45.1106 43.1756 45.2599 43.1756 45.5584V58.3775C43.1756 58.7507 43.0315 58.9373 42.7433 58.9373H28.2073L28.3154 124.32C28.3154 124.693 28.1713 124.88 27.8831 124.88Z" fill="#181E4B"/>
</svg>
