<svg width="587" height="439" viewBox="0 0 587 439" fill="none" xmlns="http://www.w3.org/2000/svg">
<path opacity="0.12" d="M164.095 346.951C88.4778 331.569 58.3745 321.885 39.2416 294.033C21.0229 267.51 12.9909 224.972 31.6667 201.108C45.3797 183.574 62.2272 190.474 85.2781 170.977C90.2409 166.8 93.8324 163.128 96.8362 158.571C119.626 123.819 62.1618 75.4577 78.3563 43.3013C83.5149 33.11 126.221 26.2736 211.438 12.9806C230.048 10.0688 244.284 8.35966 262.502 12.6008C297.307 20.7032 304.947 56.0879 322.056 53.1761C337.793 50.4542 334.202 22.6655 356.142 7.97987C385.462 -11.5798 432.609 10.7651 435.939 12.4109C477.666 32.7935 492.554 74.5082 511.099 128.946C534.607 198.006 553.414 251.178 525.922 299.793C502.872 340.558 462.451 357.649 440.771 366.574C383.634 389.995 309.975 376.639 164.095 346.951Z" fill="white"/>
<path d="M445.799 89.5738L379.454 74.3818L351.114 114.514L356.599 135.466L329.435 131.289L304.882 136.353L300.376 148.253C286.859 122.743 274.387 97.0432 264.004 74.3818C264.004 83.2438 225.085 103.437 175.98 109.83C158.806 145.278 12.9255 342.9 12.9255 342.9L515.801 341.888L445.799 89.5738Z" fill="#92CED7"/>
<path opacity="0.4" d="M291.561 131.352L308.147 162.749L317.942 168.129L334.789 166.167H358.036L379.454 188.385L393.624 185.347C393.624 185.347 403.224 184.777 410.602 183.891V146.544L340.078 108.564L291.561 131.352Z" fill="white"/>
<path opacity="0.14" d="M291.561 131.352L304.816 125.148L341.842 219.402C341.842 219.402 297.176 149.076 291.561 131.352Z" fill="#686868"/>
<path d="M291.561 131.352L308.147 162.749L317.942 168.129L334.789 166.167H358.036L379.454 188.385L393.624 185.347C393.624 185.347 403.224 184.777 410.602 183.891V146.544L340.078 108.564L291.561 131.352Z" stroke="#51B3C3" stroke-width="6" stroke-miterlimit="10" stroke-linecap="round" stroke-linejoin="round"/>
<path opacity="0.4" d="M157.565 140.024L167.686 154.646L225.085 143.189L254.666 166.167L280.264 159.204L304.816 156.672C289.602 128.44 275.431 99.5121 263.939 74.4453C263.939 83.3073 225.02 103.5 175.914 109.893C173.106 115.844 166.511 126.478 157.565 140.024Z" fill="white"/>
<path d="M157.565 140.024L167.686 154.646L225.085 143.189L254.666 166.167L280.264 159.204L304.816 156.672C289.602 128.44 275.431 99.5121 263.939 74.4453C263.939 83.3073 225.02 103.5 175.914 109.893C173.106 115.844 166.511 126.478 157.565 140.024Z" stroke="#51B3C3" stroke-width="6" stroke-miterlimit="10" stroke-linecap="round" stroke-linejoin="round"/>
<path d="M351.114 114.514L379.454 74.3818L445.799 89.5738L515.736 341.888L12.9255 342.9C12.9255 342.9 158.806 145.278 175.98 109.83C225.085 103.437 264.004 83.2438 264.004 74.3818C297.634 147.81 353.792 253.964 394.278 279.98" stroke="#51B3C3" stroke-width="6" stroke-miterlimit="10" stroke-linecap="round" stroke-linejoin="round"/>
<path opacity="0.14" d="M385.658 131.289L414.455 139.391L419.745 148.443L445.995 217.313L410.603 215.667V146.544L385.658 131.289Z" fill="#686868"/>
<path opacity="0.4" d="M417.459 120.274L430.192 113.628L447.17 139.011L465.52 160.66L445.799 89.5738L379.454 74.3818L359.668 102.36L368.68 108.564H398.326L417.459 120.274Z" fill="white"/>
<path d="M417.459 120.274L430.192 113.628L447.17 139.011L465.52 160.66L445.799 89.5738L379.454 74.3818L359.668 102.36L368.68 108.564H398.326L417.459 120.274Z" stroke="#51B3C3" stroke-width="6" stroke-miterlimit="10" stroke-linecap="round" stroke-linejoin="round"/>
<path d="M291.561 131.352L340.078 108.564L410.602 146.544V223.707" stroke="#51B3C3" stroke-width="6" stroke-miterlimit="10" stroke-linecap="round" stroke-linejoin="round"/>
<path d="M279.807 221.617C283.464 259.154 265.898 294.982 239.909 294.982C213.919 294.982 196.288 259.091 200.01 221.617C203.079 189.904 220.776 167.623 239.909 167.623C259.041 167.623 276.738 189.904 279.807 221.617Z" fill="#92CED7"/>
<path d="M279.807 221.617C283.464 259.154 265.898 294.982 239.909 294.982C213.919 294.982 196.288 259.091 200.01 221.617C203.079 189.904 220.776 167.623 239.909 167.623C259.041 167.623 276.738 189.904 279.807 221.617Z" stroke="#51B3C3" stroke-width="6" stroke-miterlimit="10" stroke-linecap="round" stroke-linejoin="round"/>
<path d="M239.908 201.361V341.887" stroke="#51B3C3" stroke-width="6" stroke-miterlimit="10" stroke-linecap="round" stroke-linejoin="round"/>
<path d="M254.666 262.193L239.909 276.499L225.085 262.193" stroke="#51B3C3" stroke-width="6" stroke-miterlimit="10" stroke-linecap="round" stroke-linejoin="round"/>
<path d="M254.666 241.874L239.909 256.243L225.085 241.874" stroke="#51B3C3" stroke-width="6" stroke-miterlimit="10" stroke-linecap="round" stroke-linejoin="round"/>
<path d="M254.666 221.618L239.909 235.987L225.085 221.618" stroke="#51B3C3" stroke-width="6" stroke-miterlimit="10" stroke-linecap="round" stroke-linejoin="round"/>
<path d="M254.666 201.361L239.909 215.667L225.085 201.361" stroke="#51B3C3" stroke-width="6" stroke-miterlimit="10" stroke-linecap="round" stroke-linejoin="round"/>
<path d="M230.048 269.282C232.595 288.336 220.449 306.503 202.492 306.503C184.534 306.503 172.454 288.336 174.935 269.282C177.09 253.204 189.301 241.874 202.492 241.874C215.682 241.874 227.893 253.204 230.048 269.282Z" fill="#92CED7"/>
<path d="M230.048 269.282C232.595 288.336 220.449 306.503 202.492 306.503C184.534 306.503 172.454 288.336 174.935 269.282C177.09 253.204 189.301 241.874 202.492 241.874C215.682 241.874 227.893 253.204 230.048 269.282Z" stroke="#51B3C3" stroke-width="6" stroke-miterlimit="10" stroke-linecap="round" stroke-linejoin="round"/>
<path d="M202.492 251.242V341.888" stroke="#51B3C3" stroke-width="6" stroke-miterlimit="10" stroke-linecap="round" stroke-linejoin="round"/>
<path d="M212.679 286.88L202.492 296.818L192.305 286.88" stroke="#51B3C3" stroke-width="6" stroke-miterlimit="10" stroke-linecap="round" stroke-linejoin="round"/>
<path d="M212.679 272.891L202.492 282.829L192.305 272.891" stroke="#51B3C3" stroke-width="6" stroke-miterlimit="10" stroke-linecap="round" stroke-linejoin="round"/>
<path d="M212.679 258.964L202.492 268.839L192.305 258.964" stroke="#51B3C3" stroke-width="6" stroke-miterlimit="10" stroke-linecap="round" stroke-linejoin="round"/>
<path d="M573.069 232.315C567.714 226.302 566.343 218.769 569.086 211.806C570.522 208.198 571.306 204.21 571.306 200.096C571.306 182.182 556.548 167.686 538.329 167.686C520.111 167.686 505.288 182.118 505.288 200.032C505.288 204.147 506.071 208.071 507.508 211.743C510.25 218.706 508.879 226.302 503.525 232.252C497.06 239.532 493.142 248.9 493.142 259.091C493.142 282.322 513.32 301.122 538.264 301.122C563.209 301.122 583.386 282.322 583.386 259.091C583.386 248.9 579.534 239.595 573.069 232.315Z" fill="#92CED7"/>
<path d="M573.069 232.315C567.714 226.302 566.343 218.769 569.086 211.806C570.522 208.198 571.306 204.21 571.306 200.096C571.306 182.182 556.548 167.686 538.329 167.686C520.111 167.686 505.288 182.118 505.288 200.032C505.288 204.147 506.071 208.071 507.508 211.743C510.25 218.706 508.879 226.302 503.525 232.252C497.06 239.532 493.142 248.9 493.142 259.091C493.142 282.322 513.32 301.122 538.264 301.122C563.209 301.122 583.386 282.322 583.386 259.091C583.386 248.9 579.534 239.595 573.069 232.315Z" stroke="#51B3C3" stroke-width="6" stroke-miterlimit="10" stroke-linecap="round" stroke-linejoin="round"/>
<path d="M538.264 189.271V342.901" stroke="#51B3C3" stroke-width="6" stroke-miterlimit="10" stroke-linecap="round" stroke-linejoin="round"/>
<path d="M554.589 269.662L538.264 285.487L521.939 269.662" stroke="#51B3C3" stroke-width="6" stroke-miterlimit="10" stroke-linecap="round" stroke-linejoin="round"/>
<path d="M554.589 247.317L538.264 263.142L521.939 247.317" stroke="#51B3C3" stroke-width="6" stroke-miterlimit="10" stroke-linecap="round" stroke-linejoin="round"/>
<path d="M554.589 224.973L538.264 240.734L521.939 224.973" stroke="#51B3C3" stroke-width="6" stroke-miterlimit="10" stroke-linecap="round" stroke-linejoin="round"/>
<path d="M554.589 202.564L538.264 218.389L521.939 202.564" stroke="#51B3C3" stroke-width="6" stroke-miterlimit="10" stroke-linecap="round" stroke-linejoin="round"/>
<path opacity="0.12" d="M53.3463 78.053C43.0942 75.9641 30.7525 93.0551 25.5938 106.158C16.5824 129.199 21.937 159.773 33.1686 162.432C45.1185 165.217 67.3205 137.238 67.2552 109.83C67.1899 97.9292 62.8801 80.0153 53.3463 78.053Z" fill="white"/>
<path d="M566.735 342.774H3V378.159L26.3774 403.732L30.8831 383.919L62.6842 416.139C80.6417 413.797 98.5339 411.391 116.491 409.049C130.335 385.375 136.408 379.171 138.759 380.121C143.591 382.02 133.273 412.657 142.807 417.595C148.227 420.38 157.239 413.417 160.569 417.025C162.593 419.24 159.916 422.595 161.94 426.393C164.291 430.824 170.821 431.71 174.674 432.28C187.211 434.053 198.247 429.368 204.32 426.14C211.242 421.582 218.229 417.025 225.151 412.467C230.113 409.935 245.198 402.972 264.396 406.264C291.038 410.821 304.359 431.331 306.449 434.622C319.966 434.622 333.549 434.622 347.066 434.622C351.898 429.305 356.73 423.988 361.562 418.607C386.768 425.38 411.909 432.09 437.114 438.863C455.398 437.091 473.748 435.319 492.032 433.546C495.231 428.989 498.366 424.431 501.565 419.873L538.329 417.405C538.329 417.405 544.99 419.873 544.99 409.935C544.99 399.997 548.843 393.794 548.843 393.794C548.843 393.794 542.443 382.653 546.296 378.918C550.149 375.184 550.149 375.184 550.149 375.184L566.735 342.774Z" fill="white"/>
<path d="M566.735 342.774H3" stroke="#534668" stroke-width="6" stroke-miterlimit="10" stroke-linecap="round" stroke-linejoin="round"/>
<path d="M501.5 246.241L390.425 188.385L279.872 246.241L265.506 342.773H515.932L501.5 246.241Z" fill="#F4646C"/>
<path opacity="0.23" d="M379.455 342.774V246.241H279.872L265.506 342.774H379.455Z" fill="#F4646C"/>
<path d="M341.776 342.9C341.776 342.9 348.894 329.544 354.575 327.328C366.721 322.644 359.342 317.643 359.342 317.643C359.342 317.643 342.168 302.578 329.435 272.89C333.483 296.185 336.095 337.393 341.776 342.9Z" fill="#F4536D"/>
<path d="M277.587 246.241L265.506 342.774H272.82L284.9 246.241H277.587Z" fill="#FA8F97"/>
<path d="M279.872 246.241H501.5L390.425 188.385L279.872 246.241Z" fill="#F4646C"/>
<path opacity="0.7" d="M393.363 192.689L496.146 246.241H501.5L390.425 188.385L279.872 246.241H291.038L393.363 192.689Z" fill="#FA8F97"/>
<path d="M501.5 246.241L390.425 188.385L371.227 246.241L368.68 342.773H515.932L501.5 246.241Z" fill="#DD4A58"/>
<path opacity="0.4" d="M501.5 246.241L390.425 188.385L388.074 195.474L485.502 246.241L499.868 342.773H515.932L501.5 246.241Z" fill="#C42C49"/>
<path opacity="0.4" d="M395.584 191.043L390.425 188.385L371.227 246.241L368.68 342.773H374.688L377.234 246.241L395.584 191.043Z" fill="#C42C49"/>
<path opacity="0.41" d="M515.932 342.774L501.5 246.241H371.227L368.68 342.774H515.932Z" fill="#534668"/>
<path d="M501.5 246.241L390.425 188.385L371.227 246.241L368.68 342.773H515.932L501.5 246.241Z" stroke="#534668" stroke-width="6" stroke-miterlimit="10" stroke-linecap="round" stroke-linejoin="round"/>
<path d="M279.872 246.241H501.5L390.425 188.385L279.872 246.241Z" stroke="#534668" stroke-width="6" stroke-miterlimit="10" stroke-linecap="round" stroke-linejoin="round"/>
<path d="M322.252 246.241L312.392 342.9L340.079 342.774V312.959L322.252 246.241Z" fill="#534668"/>
<path d="M322.252 246.241L312.392 342.9L340.079 342.774V312.959L322.252 246.241Z" stroke="#534668" stroke-width="6" stroke-miterlimit="10" stroke-linecap="round" stroke-linejoin="round"/>
<path d="M322.252 246.241C322.252 246.241 333.81 299.793 354.51 319.922C342.886 324.923 340.079 342.774 340.079 342.774C340.079 342.774 332.83 328.721 328.129 303.021C325.909 290.994 322.252 246.241 322.252 246.241Z" fill="#FAB56A"/>
<g opacity="0.45">
<path opacity="0.45" d="M323.558 251.685C322.709 248.267 322.252 246.241 322.252 246.241C322.252 246.241 322.317 247.127 322.448 248.647C322.774 249.596 323.166 250.609 323.558 251.685Z" fill="#FAB56A"/>
<path opacity="0.45" d="M352.616 320.935C353.204 320.555 353.857 320.239 354.51 319.986C354.249 319.732 353.988 319.479 353.726 319.226C353.4 319.732 353.008 320.302 352.616 320.935Z" fill="#FAB56A"/>
<path opacity="0.45" d="M331.851 299.35C329.696 291.881 325.778 271.498 323.231 257.445C324.472 271.498 326.627 294.856 328.129 303.021C332.83 328.721 340.079 342.774 340.079 342.774C340.079 342.774 340.993 337.013 343.866 331.126C340.732 324.86 336.03 314.099 331.851 299.35Z" fill="#FAB56A"/>
</g>
<path d="M322.252 246.241C322.252 246.241 335.834 303.654 354.51 319.922C342.886 324.923 340.079 342.774 340.079 342.774C340.079 342.774 332.83 328.721 328.129 303.021C325.909 290.994 322.252 246.241 322.252 246.241Z" stroke="#534668" stroke-width="6" stroke-miterlimit="10" stroke-linecap="round" stroke-linejoin="round"/>
<path d="M501.5 246.241L390.425 188.385L279.872 246.241L265.506 342.773H515.932L501.5 246.241Z" stroke="#534668" stroke-width="6" stroke-miterlimit="10" stroke-linecap="round" stroke-linejoin="round"/>
<path d="M279.872 246.241H501.5L390.425 188.385L279.872 246.241Z" stroke="#534668" stroke-width="6" stroke-miterlimit="10" stroke-linecap="round" stroke-linejoin="round"/>
<path d="M141.175 342.774H83.7108C78.6827 342.774 74.5688 338.786 74.5688 333.912C74.5688 329.038 78.6827 325.05 83.7108 325.05H141.175C146.203 325.05 150.317 329.038 150.317 333.912C150.317 338.786 146.268 342.774 141.175 342.774Z" fill="#A3533B"/>
<path opacity="0.42" d="M122.956 332.899C126.809 329.987 129.29 329.924 130.792 330.367C133.012 331 133.273 332.709 136.473 334.292C137.91 334.988 141.044 336.57 143.199 335.304C145.093 334.165 145.811 331.127 144.962 327.835" stroke="#534668" stroke-miterlimit="10" stroke-linecap="round" stroke-linejoin="round"/>
<path opacity="0.42" d="M92.0693 330.24C95.7914 331.759 99.0564 336.507 102.583 337.773C104.542 338.469 106.892 338.533 116.883 335.051" stroke="#534668" stroke-miterlimit="10" stroke-linecap="round" stroke-linejoin="round"/>
<path opacity="0.42" d="M117.079 337.9C117.079 337.9 108.851 342.331 103.823 341.381" stroke="#534668" stroke-miterlimit="10" stroke-linecap="round" stroke-linejoin="round"/>
<path opacity="0.42" d="M128.245 334.608C128.245 334.608 120.148 337.014 120.148 339.862C120.148 342.711 125.503 343.154 130.335 342.774C135.167 342.457 139.085 340.558 136.604 338.153C134.122 335.684 131.837 333.216 128.245 334.608Z" stroke="#534668" stroke-miterlimit="10" stroke-linecap="round" stroke-linejoin="round"/>
<path opacity="0.46" d="M80.5764 331.633C80.5764 331.633 74.8953 334.038 74.8953 336.887C74.8953 339.735 78.6827 340.178 82.013 339.799C85.4086 339.482 88.1512 337.583 86.3881 335.178C84.625 332.772 83.0578 330.24 80.5764 331.633Z" stroke="#A3533B" stroke-miterlimit="10" stroke-linecap="round" stroke-linejoin="round"/>
<path opacity="0.42" d="M93.963 337.013C93.963 337.013 91.4163 338.089 91.4163 339.355C91.4163 340.621 93.1141 340.811 94.616 340.685C96.1179 340.558 97.3586 339.735 96.575 338.659C95.7914 337.52 95.1384 336.38 93.963 337.013Z" stroke="#534668" stroke-miterlimit="10" stroke-linecap="round" stroke-linejoin="round"/>
<path opacity="0.42" d="M104.607 331.886C104.607 331.886 102.06 332.962 102.06 334.228C102.06 335.304 104.933 335.494 105.26 335.557C105.652 335.557 106.762 335.621 108.851 334.861C111.006 334.102 113.096 333.342 113.096 332.266C113.161 331.127 111.071 329.987 109.178 329.86C106.631 329.671 104.868 331.57 104.607 331.886Z" stroke="#534668" stroke-miterlimit="10" stroke-linecap="round" stroke-linejoin="round"/>
<path opacity="0.42" d="M128.507 336.064C128.507 336.064 124.654 337.71 124.654 339.672C124.654 341.065 127.788 341.445 129.552 341.698C131.315 341.951 132.621 342.141 133.339 341.381C134.188 340.432 133.665 338.533 132.686 337.393C131.184 335.621 128.703 336.001 128.507 336.064Z" stroke="#534668" stroke-miterlimit="10" stroke-linecap="round" stroke-linejoin="round"/>
<path opacity="0.42" d="M128.637 338.027C128.637 338.027 126.678 338.849 126.678 339.799C126.678 340.748 127.984 340.938 129.16 340.812C130.335 340.685 131.249 340.052 130.662 339.229C130.074 338.406 129.486 337.583 128.637 338.027Z" stroke="#534668" stroke-miterlimit="10" stroke-linecap="round" stroke-linejoin="round"/>
<path d="M141.175 342.774H83.7108C78.6827 342.774 74.5688 338.786 74.5688 333.912C74.5688 329.038 78.6827 325.05 83.7108 325.05H141.175C146.203 325.05 150.317 329.038 150.317 333.912C150.317 338.786 146.268 342.774 141.175 342.774Z" stroke="#534668" stroke-width="6" stroke-miterlimit="10" stroke-linecap="round" stroke-linejoin="round"/>
<path d="M62.6189 342.774V242.95" stroke="#534668" stroke-width="6" stroke-miterlimit="10" stroke-linecap="round" stroke-linejoin="round"/>
<path d="M52.7585 231.049L59.2232 240.987C60.921 243.646 64.4472 243.646 66.145 240.987L72.6097 231.049" stroke="#534668" stroke-width="6" stroke-miterlimit="10" stroke-linecap="round" stroke-linejoin="round"/>
<path d="M164.422 342.774V242.95" stroke="#534668" stroke-width="6" stroke-miterlimit="10" stroke-linecap="round" stroke-linejoin="round"/>
<path d="M154.496 231.049L160.961 240.987C162.658 243.646 166.185 243.646 167.882 240.987L174.347 231.049" stroke="#534668" stroke-width="6" stroke-miterlimit="10" stroke-linecap="round" stroke-linejoin="round"/>
<path d="M52.7585 238.962H174.347" stroke="#534668" stroke-width="8" stroke-miterlimit="10" stroke-linecap="round" stroke-linejoin="round"/>
<path d="M99.2522 309.731C101.081 312.643 101.734 312.77 101.472 318.467C100.95 329.544 106.239 334.735 112.573 336.317C120.083 338.216 123.74 336.064 126.874 333.342C139.608 322.328 128.637 307.959 127.462 306.946C127.462 311.314 127.135 317.391 124.197 318.214C126.156 309.858 119.169 301.249 112.508 298.654C116.165 307.136 110.353 310.807 113.031 320.872C111.267 314.036 101.995 310.111 99.2522 309.731Z" fill="#FFB839"/>
<path opacity="0.47" d="M103.823 315.175C105.26 317.454 105.782 317.58 105.586 322.011C105.195 330.747 109.374 334.798 114.271 336.064C120.148 337.52 123.021 335.874 125.503 333.722C135.494 325.05 126.874 313.719 125.96 312.959C125.96 316.378 125.699 321.188 123.348 321.821C124.915 315.238 119.365 308.465 114.141 306.439C117.014 313.086 112.443 315.998 114.532 323.91C113.292 318.593 105.978 315.555 103.823 315.175Z" fill="#ED4307"/>
<path opacity="0.47" d="M103.431 317.834C104.868 320.112 103.105 323.657 105.129 327.708C109.374 335.937 109.308 334.925 114.271 336.127C120.148 337.583 123.021 335.937 125.503 333.785C135.494 325.113 126.874 313.782 125.96 313.023C125.96 316.441 125.699 321.252 123.348 321.885C124.915 315.302 121.324 308.529 116.1 306.503C117.471 312.327 112.443 316.061 114.532 323.974C113.292 318.593 105.586 318.15 103.431 317.834Z" fill="#FF4729"/>
<path opacity="0.46" d="M116.361 334.418C112.182 333.532 109.047 330.051 109.308 324.48C109.374 323.721 109.374 323.024 109.308 322.455C110.81 323.467 115.838 326.949 116.296 328.595V327.012C115.577 324.164 116.818 320.619 117.21 318.53C117.406 317.58 117.602 316.568 117.667 315.428C119.691 317.644 122.107 322.391 122.107 325.24L121.977 327.329C121.977 327.329 122.434 326.696 123.348 326.316C124.262 325.936 125.633 324.987 126.221 323.657C126.417 324.543 126.548 325.493 126.482 326.442C126.352 328.974 125.242 331.127 123.021 333.026C121.715 334.355 118.516 334.861 116.361 334.418Z" fill="#FFB839"/>
<path d="M91.3508 270.295C92.3956 280.107 101.929 289.729 113.553 289.729C125.176 289.729 134.71 280.107 135.755 270.295H91.3508Z" fill="white"/>
<path d="M97.9461 270.295H91.3508C92.3956 280.107 101.929 289.729 113.553 289.729C114.663 289.729 115.773 289.665 116.883 289.475C106.762 287.83 98.8603 279.157 97.9461 270.295Z" fill="#B2B2B2"/>
<path d="M91.3508 270.295C92.3956 280.107 101.929 289.729 113.553 289.729C125.176 289.729 134.71 280.107 135.755 270.295H91.3508Z" stroke="#534668" stroke-width="6" stroke-miterlimit="10" stroke-linecap="round" stroke-linejoin="round"/>
<path d="M113.553 272.954C125.815 272.954 135.755 271.763 135.755 270.295C135.755 268.827 125.815 267.637 113.553 267.637C101.291 267.637 91.3508 268.827 91.3508 270.295C91.3508 271.763 101.291 272.954 113.553 272.954Z" fill="#FAB56A"/>
<path d="M113.553 272.954C125.815 272.954 135.755 271.763 135.755 270.295C135.755 268.827 125.815 267.637 113.553 267.637C101.291 267.637 91.3508 268.827 91.3508 270.295C91.3508 271.763 101.291 272.954 113.553 272.954Z" stroke="#534668" stroke-width="6" stroke-miterlimit="10" stroke-linecap="round" stroke-linejoin="round"/>
<path d="M91.3509 273.017C92.9017 273.017 94.1588 271.799 94.1588 270.295C94.1588 268.792 92.9017 267.573 91.3509 267.573C89.8 267.573 88.543 268.792 88.543 270.295C88.543 271.799 89.8 273.017 91.3509 273.017Z" stroke="#534668" stroke-width="6" stroke-miterlimit="10" stroke-linecap="round" stroke-linejoin="round"/>
<path d="M135.689 273.017C137.24 273.017 138.497 271.799 138.497 270.295C138.497 268.792 137.24 267.573 135.689 267.573C134.139 267.573 132.882 268.792 132.882 270.295C132.882 271.799 134.139 273.017 135.689 273.017Z" stroke="#534668" stroke-width="6" stroke-miterlimit="10" stroke-linecap="round" stroke-linejoin="round"/>
<path d="M90.7631 267.573C89.0653 258.268 93.8322 248.52 113.553 248.52C133.273 248.52 137.975 258.268 136.343 267.573" stroke="#534668" stroke-width="4" stroke-miterlimit="10" stroke-linecap="round" stroke-linejoin="round"/>
<path d="M113.944 241.43C115.676 241.43 117.079 240.07 117.079 238.392C117.079 236.714 115.676 235.354 113.944 235.354C112.213 235.354 110.81 236.714 110.81 238.392C110.81 240.07 112.213 241.43 113.944 241.43Z" stroke="#534668" stroke-width="6" stroke-miterlimit="10" stroke-linecap="round" stroke-linejoin="round"/>
<path d="M110.81 241.43C112.541 241.43 113.945 240.07 113.945 238.392C113.945 236.714 112.541 235.354 110.81 235.354C109.079 235.354 107.676 236.714 107.676 238.392C107.676 240.07 109.079 241.43 110.81 241.43Z" stroke="#534668" stroke-width="6" stroke-miterlimit="10" stroke-linecap="round" stroke-linejoin="round"/>
<path d="M114.336 250.356C115.346 250.356 116.165 249.562 116.165 248.583C116.165 247.604 115.346 246.811 114.336 246.811C113.327 246.811 112.508 247.604 112.508 248.583C112.508 249.562 113.327 250.356 114.336 250.356Z" stroke="#534668" stroke-width="4" stroke-miterlimit="10" stroke-linecap="round" stroke-linejoin="round"/>
<path d="M111.724 250.356C112.734 250.356 113.553 249.562 113.553 248.583C113.553 247.604 112.734 246.811 111.724 246.811C110.715 246.811 109.896 247.604 109.896 248.583C109.896 249.562 110.715 250.356 111.724 250.356Z" stroke="#534668" stroke-width="4" stroke-miterlimit="10" stroke-linecap="round" stroke-linejoin="round"/>
<path d="M113.553 239.975C113.553 239.975 111.333 243.963 113.096 246.811C113.096 246.811 113.357 249.786 112.443 251.369C111.529 252.951 111.724 253.521 111.724 253.901" stroke="#534668" stroke-width="4" stroke-miterlimit="10" stroke-linecap="round" stroke-linejoin="round"/>
<path d="M83.7108 342.774C88.7598 342.774 92.8528 338.806 92.8528 333.912C92.8528 329.017 88.7598 325.05 83.7108 325.05C78.6619 325.05 74.5688 329.017 74.5688 333.912C74.5688 338.806 78.6619 342.774 83.7108 342.774Z" fill="#B75A44"/>
<path d="M83.7108 342.774C88.7598 342.774 92.8528 338.806 92.8528 333.912C92.8528 329.017 88.7598 325.05 83.7108 325.05C78.6619 325.05 74.5688 329.017 74.5688 333.912C74.5688 338.806 78.6619 342.774 83.7108 342.774Z" stroke="#534668" stroke-width="6" stroke-miterlimit="10" stroke-linecap="round" stroke-linejoin="round"/>
<path opacity="0.61" d="M85.4738 338.153C84.8861 338.533 84.2331 338.786 83.5148 338.786C81.2946 338.786 79.5315 336.761 79.5315 334.229C79.5315 331.697 81.2946 329.671 83.5148 329.671C85.735 329.671 87.4981 331.697 87.4981 334.229C87.4981 335.241 87.2369 336.191 86.7145 336.95" stroke="#534668" stroke-miterlimit="10" stroke-linecap="round" stroke-linejoin="round"/>
<path opacity="0.61" d="M86.1922 333.659C86.1922 335.178 84.8209 336.697 83.5149 336.697C82.2089 336.697 81.1641 335.495 81.1641 333.975C81.1641 332.456 82.2089 331.253 83.5149 331.253C84.8209 331.253 86.1922 332.14 86.1922 333.659Z" stroke="#534668" stroke-miterlimit="10" stroke-linecap="round" stroke-linejoin="round"/>
<path opacity="0.61" d="M83.5148 334.545C82.9924 334.545 82.6006 334.102 82.6006 333.595C82.6006 333.089 82.9924 332.646 83.5148 332.646C83.5148 332.646 84.3637 332.582 84.5596 333.152" stroke="#534668" stroke-miterlimit="10" stroke-linecap="round" stroke-linejoin="round"/>
</svg>
